<?xml version="1.0" encoding="UTF-8"?>
<svg version="1.1" xmlns="http://www.w3.org/2000/svg" width="512" height="512">
<path d="M0 0 C2.79606259 0.00461972 5.591689 -0.0022568 8.38769531 -0.02050781 C48.57148372 -0.28036144 48.57148372 -0.28036144 64.08496094 5.31567383 C66.5363739 5.88784516 68.99518611 6.42911679 71.45996094 6.94067383 C73.3278125 7.33125977 73.3278125 7.33125977 75.23339844 7.72973633 C76.17441406 7.9230957 77.11542969 8.11645508 78.08496094 8.31567383 C78.08496094 8.97567383 78.08496094 9.63567383 78.08496094 10.31567383 C79.23996094 10.41879883 80.39496094 10.52192383 81.58496094 10.62817383 C85.21581351 11.08520422 88.38204987 12.04119776 91.78808594 13.41723633 C96.47977244 15.25241982 101.29967904 16.74450627 106.08496094 18.31567383 C106.08496094 18.97567383 106.08496094 19.63567383 106.08496094 20.31567383 C106.69082031 20.47422852 107.29667969 20.6327832 107.92089844 20.79614258 C113.63101178 22.38618952 118.71866455 24.45551684 123.95605469 27.22973633 C126.17658261 28.42920141 126.17658261 28.42920141 129.08496094 29.31567383 C129.08496094 29.97567383 129.08496094 30.63567383 129.08496094 31.31567383 C130.03371094 31.62504883 130.98246094 31.93442383 131.95996094 32.25317383 C135.08496094 33.31567383 135.08496094 33.31567383 137.08496094 34.31567383 C137.08496094 34.97567383 137.08496094 35.63567383 137.08496094 36.31567383 C138.03371094 36.62504883 138.98246094 36.93442383 139.95996094 37.25317383 C143.08496094 38.31567383 143.08496094 38.31567383 145.08496094 39.31567383 C145.08496094 39.97567383 145.08496094 40.63567383 145.08496094 41.31567383 C145.97183594 41.56317383 146.85871094 41.81067383 147.77246094 42.06567383 C151.29518424 43.39500338 153.23863194 44.87596326 156.08496094 47.31567383 C157.34939567 48.28243386 158.62084592 49.24005602 159.89746094 50.19067383 C160.58066406 50.70243164 161.26386719 51.21418945 161.96777344 51.74145508 C163.37426003 52.78723755 164.78571565 53.82637145 166.20214844 54.85864258 C170.16869418 57.76993747 173.67885545 60.74341685 177.08496094 64.31567383 C178.58221117 65.81841856 180.08248774 67.31815111 181.58496094 68.81567383 C184.7516276 71.98234049 187.91829427 75.14900716 191.08496094 78.31567383 C191.61605469 78.82356445 192.14714844 79.33145508 192.69433594 79.85473633 C196.70330173 83.73953062 200.16218942 87.83010068 203.50683594 92.30004883 C204.98936915 94.28097112 204.98936915 94.28097112 206.52246094 95.73754883 C211.89074609 101.15951684 224.08496094 114.68016398 224.08496094 122.31567383 C224.74496094 122.64567383 225.40496094 122.97567383 226.08496094 123.31567383 C227.15527344 125.09301758 227.15527344 125.09301758 228.20996094 127.25317383 C228.73976563 128.31858398 228.73976563 128.31858398 229.28027344 129.40551758 C230.08496094 131.31567383 230.08496094 131.31567383 230.08496094 133.31567383 C230.74496094 133.31567383 231.40496094 133.31567383 232.08496094 133.31567383 C232.54386719 134.30567383 233.00277344 135.29567383 233.47558594 136.31567383 C234.09537598 137.64900792 234.71516776 138.9823412 235.33496094 140.31567383 C235.65489014 141.00685303 235.97481934 141.69803223 236.30444336 142.41015625 C237.91417555 145.87216069 239.57105795 149.27398127 241.39746094 152.62817383 C243.616647 156.9427287 244.34394774 161.55758912 245.08496094 166.31567383 C245.74496094 166.31567383 246.40496094 166.31567383 247.08496094 166.31567383 C247.35050781 167.26829102 247.61605469 168.2209082 247.88964844 169.20239258 C248.41945313 171.0837793 248.41945313 171.0837793 248.95996094 173.00317383 C249.30800781 174.24454102 249.65605469 175.4859082 250.01464844 176.76489258 C250.98137138 180.18005875 250.98137138 180.18005875 252.12402344 182.84301758 C253.31722068 185.9133178 253.93513482 188.9627332 254.58496094 192.19067383 C255.28256485 195.64078012 255.98659598 198.99995446 257.03393555 202.36157227 C261.95194891 219.47217805 261.61808879 238.30190407 261.52246094 255.94067383 C261.5207489 257.0652298 261.51903687 258.18978577 261.51727295 259.34841919 C261.40616706 301.97339931 261.40616706 301.97339931 255.08496094 317.31567383 C254.56862834 319.578346 254.09198429 321.85030559 253.64746094 324.12817383 C252.54115041 329.48092883 251.12493502 334.26008588 249.08496094 339.31567383 C248.36305336 341.63736424 247.72069914 343.96833276 247.08496094 346.31567383 C246.42496094 346.31567383 245.76496094 346.31567383 245.08496094 346.31567383 C244.89933594 347.49129883 244.71371094 348.66692383 244.52246094 349.87817383 C243.06224717 356.5279243 239.89081392 362.48164596 236.92919922 368.56225586 C235.22301174 372.105876 233.66447588 375.71437976 232.08496094 379.31567383 C231.42496094 379.31567383 230.76496094 379.31567383 230.08496094 379.31567383 C229.8490625 380.1484082 229.61316406 380.98114258 229.37011719 381.83911133 C227.86505195 385.91056441 225.85004985 389.29563167 223.52246094 392.94067383 C223.07845947 393.64216553 222.63445801 394.34365723 222.17700195 395.06640625 C216.13620519 404.49649271 209.26742867 413.22099968 202.12792969 421.84301758 C200.69667015 423.57530685 199.30639612 425.34189912 197.94824219 427.13208008 C197.02591797 428.21295898 197.02591797 428.21295898 196.08496094 429.31567383 C195.42496094 429.31567383 194.76496094 429.31567383 194.08496094 429.31567383 C193.87097656 429.85579102 193.65699219 430.3959082 193.43652344 430.95239258 C191.59863832 434.16603563 189.08844578 436.56508824 186.45996094 439.12817383 C185.91799072 439.66224854 185.37602051 440.19632324 184.81762695 440.74658203 C180.70795794 444.76952597 176.50019206 448.62917017 172.08496094 452.31567383 C171.34890625 452.9524707 170.61285156 453.58926758 169.85449219 454.24536133 C148.50521275 472.31777462 123.41857205 487.79975159 96.89746094 496.94067383 C93.26931333 498.20246731 89.65612415 499.4634732 86.08496094 500.87817383 C76.67973974 504.40513178 67.02936366 506.68178616 57.15136719 508.36450195 C53.83301489 508.70189298 53.83301489 508.70189298 51.08496094 510.31567383 C37.04691431 512.97642359 22.69746815 512.62241556 8.47387695 512.57641602 C4.52702506 512.56568624 0.58062726 512.57636773 -3.36621094 512.58911133 C-20.78913327 512.59892366 -36.98465646 511.70258286 -53.91503906 507.31567383 C-54.80191406 507.09008789 -55.68878906 506.86450195 -56.60253906 506.63208008 C-68.86695122 503.40172152 -80.83358117 499.55496098 -92.54785156 494.70239258 C-94.48849991 493.90316965 -96.43779903 493.12312118 -98.40722656 492.39770508 C-110.3413208 487.99984682 -122.28822798 481.66981813 -132.48144531 474.07348633 C-134.87992098 472.34104002 -137.35398205 470.78489581 -139.87353516 469.23583984 C-147.66990977 464.41543215 -154.44195015 458.80121071 -161.28955078 452.73071289 C-163.68843678 450.6424066 -166.17701466 448.67129522 -168.66503906 446.69067383 C-177.89319307 439.16742804 -185.51643286 430.60300873 -192.91503906 421.31567383 C-194.43459343 419.48128029 -195.95542535 417.64794427 -197.47753906 415.81567383 C-214.52831481 394.85497882 -227.08968009 371.40141537 -236.91503906 346.31567383 C-237.29402344 345.3643457 -237.67300781 344.41301758 -238.06347656 343.43286133 C-242.78974573 331.06894119 -245.97172473 318.18035 -248.23925781 305.15942383 C-248.58379768 303.19972887 -248.9340424 301.23818394 -249.40795898 299.30569458 C-251.26367944 291.44460909 -251.22450536 283.61561227 -251.21582031 275.58911133 C-251.21971938 274.07231532 -251.22405648 272.55552039 -251.22880554 271.03872681 C-251.23622942 267.87010145 -251.23600595 264.70158757 -251.23071289 261.53295898 C-251.22494427 257.51921005 -251.24180454 253.5059265 -251.26505756 249.49225426 C-251.2799658 246.36049842 -251.28064338 243.22885002 -251.27754784 240.09706497 C-251.27805321 238.61983957 -251.28313932 237.14260685 -251.29335976 235.66541672 C-251.35701525 225.17449702 -250.10542247 215.5822124 -247.91503906 205.31567383 C-247.44350316 202.83881104 -246.99297689 200.35854298 -246.54003906 197.87817383 C-244.1399676 185.99090888 -240.65767265 174.47385627 -235.91503906 163.31567383 C-235.19574219 161.47682617 -235.19574219 161.47682617 -234.46191406 159.60083008 C-223.90034996 132.72377698 -208.38867907 107.21557942 -188.55957031 86.13598633 C-186.84805465 84.40483338 -186.84805465 84.40483338 -185.91503906 82.31567383 C-185.25503906 82.31567383 -184.59503906 82.31567383 -183.91503906 82.31567383 C-183.68042969 81.75493164 -183.44582031 81.19418945 -183.20410156 80.61645508 C-178.92762035 72.98358406 -170.5690438 66.91780215 -163.91503906 61.31567383 C-162.95210938 60.4984082 -161.98917969 59.68114258 -160.99707031 58.83911133 C-146.16924613 46.31567383 -146.16924613 46.31567383 -142.91503906 46.31567383 C-142.91503906 45.65567383 -142.91503906 44.99567383 -142.91503906 44.31567383 C-140.8974463 42.93269481 -138.89718098 41.67289378 -136.79003906 40.44067383 C-135.64092007 39.75692203 -134.49247914 39.07202934 -133.34472656 38.38598633 C-132.77463867 38.04656006 -132.20455078 37.70713379 -131.6171875 37.35742188 C-128.99863593 35.75481723 -126.46861195 34.01926141 -123.91503906 32.31567383 C-121.93183888 31.28275707 -119.93156101 30.28192393 -117.91503906 29.31567383 C-116.84253906 28.75879883 -115.77003906 28.20192383 -114.66503906 27.62817383 C-111.91503906 26.31567383 -111.91503906 26.31567383 -109.91503906 26.31567383 C-109.58503906 25.65567383 -109.25503906 24.99567383 -108.91503906 24.31567383 C-107.13499263 23.45350966 -105.31392709 22.67522904 -103.47753906 21.94067383 C-101.8571875 21.28905273 -101.8571875 21.28905273 -100.20410156 20.62426758 C-98.57601562 19.97651367 -98.57601562 19.97651367 -96.91503906 19.31567383 C-95.95339844 18.91477539 -94.99175781 18.51387695 -94.00097656 18.10083008 C-93.12699219 17.73860352 -92.25300781 17.37637695 -91.35253906 17.00317383 C-90.17498047 16.51397461 -90.17498047 16.51397461 -88.97363281 16.01489258 C-86.91503906 15.31567383 -86.91503906 15.31567383 -83.91503906 15.31567383 C-83.91503906 14.65567383 -83.91503906 13.99567383 -83.91503906 13.31567383 C-82.16687048 12.80930776 -80.41641644 12.31082764 -78.66503906 11.81567383 C-77.69050781 11.53723633 -76.71597656 11.25879883 -75.71191406 10.97192383 C-72.91503906 10.31567383 -72.91503906 10.31567383 -68.91503906 10.31567383 C-68.91503906 9.65567383 -68.91503906 8.99567383 -68.91503906 8.31567383 C-66.97951172 7.91735352 -66.97951172 7.91735352 -65.00488281 7.51098633 C-63.28740656 7.15435192 -61.56996022 6.79757344 -59.85253906 6.44067383 C-59.00498047 6.26665039 -58.15742188 6.09262695 -57.28417969 5.91333008 C-56.44951172 5.73930664 -55.61484375 5.5652832 -54.75488281 5.38598633 C-53.99554443 5.22888184 -53.23620605 5.07177734 -52.45385742 4.90991211 C-50.45931443 4.44306745 -48.48371575 3.89521682 -46.51831055 3.31787109 C-31.47010065 -0.86756841 -15.47973842 -0.02768543 0 0 Z " fill="#97B6DB" transform="translate(250.9150390625,-0.315673828125)"/>
<path d="M0 0 C8.0414393 -0.0698388 16.08274961 -0.12298174 24.12441826 -0.15543652 C27.8594225 -0.17102157 31.59421763 -0.19212684 35.32910156 -0.22631836 C38.94067535 -0.25917009 42.55204934 -0.2769067 46.16376114 -0.28463173 C47.5343248 -0.29012936 48.90487885 -0.30086348 50.27535629 -0.31719017 C58.37850955 -0.40979119 65.39877875 0.05753124 73 3 C73 3.66 73 4.32 73 5 C74.11955078 5.37898438 74.11955078 5.37898438 75.26171875 5.765625 C83.93422285 9.67505623 88.3857475 19.78276937 92.7421875 27.73974609 C95.29525514 32.32753729 97.97148295 36.84484422 100.625 41.375 C101.8465358 43.46603974 103.06788733 45.55718713 104.2890625 47.6484375 C104.90426758 48.7012793 105.51947266 49.75412109 106.15332031 50.83886719 C109.10474816 55.89109983 112.0522128 60.94564264 115 66 C116.1523338 67.97526622 117.3046776 69.95052661 118.45703125 71.92578125 C120.93444677 76.17268024 123.41084255 80.42017219 125.88671875 84.66796875 C126.52287109 85.75916016 127.15902344 86.85035156 127.81445312 87.97460938 C129.03345952 90.06560575 130.25222235 92.15674416 131.47070312 94.24804688 C132.02048828 95.19099609 132.57027344 96.13394531 133.13671875 97.10546875 C133.61842529 97.93199951 134.10013184 98.75853027 134.59643555 99.61010742 C135.58916235 101.30045403 136.62082921 102.96821191 137.67895508 104.6184082 C139 107 139 107 139 110 C139.66 110 140.32 110 141 110 C142.33838733 112.45570175 143.67086232 114.91429916 145 117.375 C145.57234375 118.42300781 145.57234375 118.42300781 146.15625 119.4921875 C149 124.7734375 149 124.7734375 149 127 C149.66 127 150.32 127 151 127 C152.5066972 129.7881022 154.00419804 132.58103958 155.5 135.375 C155.92925781 136.1690625 156.35851562 136.963125 156.80078125 137.78125 C157.20683594 138.54179687 157.61289062 139.30234375 158.03125 140.0859375 C158.40830078 140.7876709 158.78535156 141.4894043 159.17382812 142.21240234 C160 144 160 144 160 146 C160.66 146 161.32 146 162 146 C162.53367187 146.95777344 163.06734375 147.91554687 163.6171875 148.90234375 C168.02735429 156.79311284 172.51695571 164.62940162 177.11547852 172.41186523 C180.37304029 177.92674421 183.60151843 183.45786978 186.8125 189 C187.2564209 189.76481689 187.7003418 190.52963379 188.15771484 191.31762695 C189.44486548 193.54148079 190.72365499 195.76992944 192 198 C192.69295166 199.19882812 192.69295166 199.19882812 193.39990234 200.421875 C194.07400146 201.60523438 194.07400146 201.60523438 194.76171875 202.8125 C195.16737061 203.52019531 195.57302246 204.22789062 195.9909668 204.95703125 C199.05705122 211.16486925 199.54135743 219.35317263 197.37158203 225.89453125 C195.31071034 230.80363009 192.67063661 235.40259783 190 240 C189.60425781 240.6914209 189.20851563 241.3828418 188.80078125 242.09521484 C186.35156441 246.364501 183.84326429 250.59594762 181.30859375 254.81494141 C179.05860459 258.57191958 176.84344321 262.34934049 174.625 266.125 C174.22039551 266.81134521 173.81579102 267.49769043 173.39892578 268.20483398 C170.89814756 272.45074087 168.43640812 276.71681677 166 281 C165.34 281 164.68 281 164 281 C163.41992188 279.96101563 162.83984375 278.92203125 162.2421875 277.8515625 C157.94000571 270.16289097 153.58359 262.52529702 149 255 C143.36076837 245.71451819 137.88739805 236.348298 132.51538086 226.90551758 C129.36363396 221.37058399 126.17673128 215.85917237 122.9375 210.375 C119.27917714 204.17392336 115.62679999 197.96958376 112 191.75 C111.53070068 190.95126465 111.06140137 190.1525293 110.57788086 189.32958984 C108.42602683 185.63041073 106.42704409 182.05410252 105 178 C104.34 178 103.68 178 103 178 C102.57589844 177.11699219 102.15179688 176.23398437 101.71484375 175.32421875 C98.38835909 168.48639152 94.86141875 162.00224298 90.6796875 155.63671875 C89.01241967 153.01949599 87.5237374 150.36185815 86.0625 147.625 C83.88433583 143.55177523 81.56419048 139.61017475 79.125 135.6875 C75.68152022 130.14798904 72.40835135 124.5284277 69.19140625 118.85546875 C61.60879887 105.48530595 53.81009627 92.23808217 46 79 C40.26582448 69.28059527 34.55864262 59.54683583 28.91894531 49.7722168 C26.87970539 46.23878218 24.83518407 42.70968455 22.75 39.203125 C22.110625 38.12546875 21.47125 37.0478125 20.8125 35.9375 C20.26207031 35.01839844 19.71164063 34.09929687 19.14453125 33.15234375 C18 31 18 31 18 29 C17.34 29 16.68 29 16 29 C15.59273682 28.20734741 15.59273682 28.20734741 15.17724609 27.39868164 C8.66992444 14.54473231 8.66992444 14.54473231 0.9609375 2.3984375 C0 1 0 1 0 0 Z " fill="#010101" transform="translate(221,105)"/>
<path d="M0 0 C26.19898299 -0.3037213 52.39770208 -0.53294463 78.59809113 -0.67355824 C90.76358396 -0.74058443 102.92798282 -0.83195585 115.09277344 -0.98071289 C125.69606805 -1.11031335 136.29857047 -1.19416203 146.9026351 -1.22315043 C152.51761541 -1.24009616 158.13032955 -1.27989163 163.74458313 -1.37449074 C169.03124663 -1.46284693 174.31471524 -1.48993227 179.60204697 -1.47039986 C181.54038246 -1.47397175 183.47882646 -1.49977687 185.41652298 -1.54967117 C197.35340389 -1.84191844 197.35340389 -1.84191844 202 0 C206.01627133 3.92422457 207.83370994 7.81185745 210 13 C211.1359869 14.99024791 212.29591718 16.96726754 213.4921875 18.921875 C214.62127201 20.86372335 215.74885643 22.80644463 216.875 24.75 C218.0896323 26.83866465 219.3044774 28.92720556 220.51953125 31.015625 C221.4024585 32.53446289 221.4024585 32.53446289 222.30322266 34.08398438 C224.71438715 38.227718 227.13507382 42.36577513 229.5625 46.5 C229.94325684 47.1506543 230.32401367 47.80130859 230.71630859 48.47167969 C232.23441313 51.05508528 233.75507596 53.62247707 235.38623047 56.13671875 C235.84529785 56.84441406 236.30436523 57.55210937 236.77734375 58.28125 C237.20136475 58.92126953 237.62538574 59.56128906 238.06225586 60.22070312 C239 62 239 62 239 65 C214.4956475 65.07009946 189.99131004 65.12299281 165.48687744 65.15543652 C154.1088933 65.17090148 142.73097148 65.191984 131.35302734 65.22631836 C121.43532996 65.25623197 111.51767773 65.2755777 101.59993649 65.28226548 C96.34919077 65.2861744 91.09857418 65.29535333 85.84786987 65.31719017 C80.90344334 65.33758622 75.95919887 65.34382746 71.01473427 65.33932304 C69.202345 65.34014685 67.3899495 65.34609386 65.57759666 65.35761642 C63.0972452 65.3726095 60.61757527 65.36892903 58.13720703 65.36076355 C57.42512053 65.36950207 56.71303404 65.3782406 55.97936916 65.38724393 C49.2929772 65.32801306 43.24503305 63.36908341 37.875 59.3125 C37.27429688 58.87550781 36.67359375 58.43851562 36.0546875 57.98828125 C29.03758708 51.19796925 24.52097951 42.31991386 19.6875 33.9375 C18.55621646 31.98699112 17.42332773 30.03742169 16.29017639 28.08799744 C15.54934424 26.8134637 14.80905188 25.53861603 14.06932068 24.26344299 C10.59053757 18.27374423 7.00306133 12.35468749 3.37109375 6.45703125 C2 4 2 4 2 2 C1.34 2 0.68 2 0 2 C0 1.34 0 0.68 0 0 Z " fill="#010102" transform="translate(93,322)"/>
<path d="M0 0 C3.68213432 1.22737811 3.95055425 2.13638857 5.828125 5.43359375 C6.64555176 6.85273071 6.64555176 6.85273071 7.47949219 8.30053711 C8.06375977 9.33573486 8.64802734 10.37093262 9.25 11.4375 C9.86262695 12.50556885 10.47525391 13.5736377 11.10644531 14.67407227 C12.74476416 17.53157132 14.37566842 20.39316533 16.00488281 23.25585938 C18.89900515 28.3283839 21.82940079 33.38019502 24.75 38.4375 C25.38091553 39.53239746 26.01183105 40.62729492 26.66186523 41.75537109 C31.33909663 49.87089706 36.06424325 57.95656966 40.83056641 66.02001953 C42.89207665 69.51038448 44.9454763 73.00551971 47 76.5 C47.8332978 77.91668757 48.66663107 79.33335428 49.5 80.75 C54.5 89.25 54.5 89.25 55.75195312 91.37841797 C56.57866206 92.78375847 57.4054835 94.18903278 58.23242188 95.59423828 C60.41807382 99.30863809 62.60130281 103.02443633 64.78125 106.7421875 C65.23628906 107.51755859 65.69132813 108.29292969 66.16015625 109.09179688 C67.03327135 110.57965628 67.90570132 112.067918 68.77734375 113.55664062 C70.4580749 116.41939417 72.15804875 119.23707313 74 122 C74 122.99 74 123.98 74 125 C25.82 125 -22.36 125 -72 125 C-70.41526595 120.24579785 -68.91387124 116.80985189 -66.4375 112.5625 C-66.08888916 111.96195801 -65.74027832 111.36141602 -65.38110352 110.74267578 C-62.02555777 104.9849913 -58.58462449 99.27772314 -55.14453125 93.5703125 C-51.17202973 86.97108853 -47.32777535 80.29710447 -43.47265625 73.62890625 C-37.76622408 63.75969325 -32.02576415 53.91208488 -26.23388672 44.09277344 C-24.57085129 41.27212846 -22.91079791 38.44973446 -21.25097656 35.62719727 C-20.42112528 34.21609379 -19.5910494 32.80512236 -18.76074219 31.39428711 C-16.61181496 27.74271703 -14.46581637 24.08946801 -12.32421875 20.43359375 C-11.88271484 19.68078125 -11.44121094 18.92796875 -10.98632812 18.15234375 C-10.15206759 16.72970999 -9.31866079 15.30657505 -8.48632812 13.8828125 C-5.73986622 9.2022875 -2.89770187 4.58834527 0 0 Z " fill="#010102" transform="translate(193,151)"/>
</svg>
