<?xml version="1.0" encoding="UTF-8"?>
<svg version="1.1" xmlns="http://www.w3.org/2000/svg" width="512" height="512">
<path d="M0 0 C1.78132324 0.00214508 1.78132324 0.00214508 3.59863281 0.0043335 C22.10125645 0.05943047 39.59370464 1.07564094 57.625 5.5 C58.62708496 5.73525391 59.62916992 5.97050781 60.66162109 6.21289062 C67.06222344 7.73819419 73.35724299 9.49928232 79.625 11.5 C80.4077832 11.74943359 81.19056641 11.99886719 81.99707031 12.25585938 C116.73815755 23.61717332 147.79094059 42.92523363 174.625 67.5 C175.64118985 68.41228021 176.6581457 69.32370773 177.67578125 70.234375 C192.36622404 83.43931875 192.36622404 83.43931875 195.625 90.5 C196.285 90.5 196.945 90.5 197.625 90.5 C199.11791992 92.16137695 199.11791992 92.16137695 200.85546875 94.48828125 C201.80752197 95.75720215 201.80752197 95.75720215 202.77880859 97.05175781 C203.44992676 97.96280273 204.12104492 98.87384766 204.8125 99.8125 C205.83851318 101.19646973 205.83851318 101.19646973 206.88525391 102.60839844 C211.40827196 108.74948589 215.78673682 114.90269189 219.625 121.5 C220.12990967 122.36407471 220.12990967 122.36407471 220.64501953 123.24560547 C241.59932315 159.27667356 256.56953888 199.00544611 256.86328125 241.21484375 C256.871353 242.34281876 256.87942474 243.47079376 256.88774109 244.63294983 C256.90153435 247.02245574 256.91227764 249.41198097 256.92016602 251.80151367 C256.93157719 254.19512901 256.95185161 256.58872117 256.98168945 258.98217773 C257.72654226 318.90745827 236.10458536 371.09666618 200.625 418.5 C200.10711914 419.24580322 199.58923828 419.99160645 199.05566406 420.76000977 C198.58354492 421.33420654 198.11142578 421.90840332 197.625 422.5 C196.965 422.5 196.305 422.5 195.625 422.5 C195.22885498 423.37724731 195.22885498 423.37724731 194.82470703 424.2722168 C193.57718335 426.58879263 192.22582802 428.22869907 190.4296875 430.14453125 C189.79546875 430.82193359 189.16125 431.49933594 188.5078125 432.19726562 C187.84523438 432.89529297 187.18265625 433.59332031 186.5 434.3125 C185.860625 434.99892578 185.22125 435.68535156 184.5625 436.39257812 C180.15528498 441.06971294 175.51622366 445.3369713 170.625 449.5 C169.61467699 450.38794983 168.60546286 451.27716388 167.59765625 452.16796875 C126.44232483 487.79909461 71.00518054 512.20804019 16.0859375 512.7734375 C14.42590195 512.79222961 14.42590195 512.79222961 12.73233032 512.81140137 C-10.7774195 513.02601404 -33.42065509 513.13233322 -56.375 507.5 C-57.37708496 507.26474609 -58.37916992 507.02949219 -59.41162109 506.78710938 C-65.81222344 505.26180581 -72.10724299 503.50071768 -78.375 501.5 C-79.1577832 501.25056641 -79.94056641 501.00113281 -80.74707031 500.74414062 C-115.48815755 489.38282668 -146.54094059 470.07476637 -173.375 445.5 C-174.39118985 444.58771979 -175.4081457 443.67629227 -176.42578125 442.765625 C-191.11622404 429.56068125 -191.11622404 429.56068125 -194.375 422.5 C-195.035 422.5 -195.695 422.5 -196.375 422.5 C-197.86791992 420.83862305 -197.86791992 420.83862305 -199.60546875 418.51171875 C-200.2401709 417.66577148 -200.87487305 416.81982422 -201.52880859 415.94824219 C-202.19992676 415.03719727 -202.87104492 414.12615234 -203.5625 413.1875 C-204.24650879 412.26485352 -204.93051758 411.34220703 -205.63525391 410.39160156 C-210.15827196 404.25051411 -214.53673682 398.09730811 -218.375 391.5 C-218.71160645 390.9239502 -219.04821289 390.34790039 -219.39501953 389.75439453 C-240.33390479 353.74983841 -255.21454201 314.12724667 -255.6484375 271.9609375 C-255.66092026 270.85411118 -255.67340302 269.74728485 -255.68626404 268.60691833 C-255.90033473 245.07549859 -255.94774344 222.46973005 -250.375 199.5 C-250.16149902 198.57380859 -249.94799805 197.64761719 -249.72802734 196.69335938 C-248.45915336 191.23570846 -247.00769769 185.85936599 -245.375 180.5 C-244.99730469 179.24058594 -244.61960938 177.98117188 -244.23046875 176.68359375 C-234.58728057 146.2704618 -218.37599319 119.88672349 -199.375 94.5 C-198.85711914 93.75419678 -198.33923828 93.00839355 -197.80566406 92.23999023 C-197.33354492 91.66579346 -196.86142578 91.09159668 -196.375 90.5 C-195.715 90.5 -195.055 90.5 -194.375 90.5 C-193.97885498 89.62275269 -193.97885498 89.62275269 -193.57470703 88.7277832 C-192.32718335 86.41120737 -190.97582802 84.77130093 -189.1796875 82.85546875 C-188.54546875 82.17806641 -187.91125 81.50066406 -187.2578125 80.80273438 C-186.59523438 80.10470703 -185.93265625 79.40667969 -185.25 78.6875 C-184.610625 78.00107422 -183.97125 77.31464844 -183.3125 76.60742188 C-178.90528498 71.93028706 -174.26622366 67.6630287 -169.375 63.5 C-168.36467699 62.61205017 -167.35546286 61.72283612 -166.34765625 60.83203125 C-132.49377962 31.52229913 -90.45334055 11.404544 -46.375 3.5 C-45.39098206 3.31467712 -45.39098206 3.31467712 -44.38708496 3.12561035 C-29.59055095 0.38916919 -15.02113642 -0.05841437 0 0 Z " fill="#97B6DB" transform="translate(255.375,-0.5)"/>
<path d="M0 0 C5.02652652 0.00570455 10.05300025 0.00229709 15.07952499 -0.00342655 C50.44479197 -0.03793966 50.44479197 -0.03793966 65.05322266 0.53271484 C66.38052902 0.58218765 66.38052902 0.58218765 67.73464966 0.63265991 C92.84191926 1.83665599 116.5790441 10.36081829 133.90478516 29.13037109 C142.53978956 39.96108097 148.01389897 51.53487055 151.15478516 65.00537109 C151.31833496 65.69993408 151.48188477 66.39449707 151.65039062 67.11010742 C155.07473011 83.10802213 154.05177415 99.94925097 154.03759766 116.20068359 C154.03782118 118.93203772 154.03924264 121.66339105 154.04049683 124.39474487 C154.04230648 130.09845471 154.0399435 135.80215152 154.03515625 141.50585938 C154.02971073 148.06902551 154.03148328 154.63216058 154.03698266 161.19532597 C154.04154202 166.86708913 154.04215074 172.53884301 154.03954399 178.21060741 C154.03799735 181.58215654 154.03814452 184.95367958 154.04108047 188.32522964 C154.04363774 192.08598136 154.03972355 195.84667449 154.03417969 199.60742188 C154.03620392 200.70177551 154.03822815 201.79612915 154.04031372 202.92364502 C154.01286754 213.04256212 153.52191977 222.98198041 151.02978516 232.81787109 C150.84907471 233.54772217 150.66836426 234.27757324 150.48217773 235.02954102 C149.96971057 237.06689939 149.44077162 239.09909506 148.90478516 241.13037109 C148.67919922 242.00951172 148.45361328 242.88865234 148.22119141 243.79443359 C145.32475374 253.68909644 139.01431457 263.70194458 131.90478516 271.13037109 C131.24478516 271.13037109 130.58478516 271.13037109 129.90478516 271.13037109 C129.57478516 272.12037109 129.24478516 273.11037109 128.90478516 274.13037109 C126.75956158 276.34831411 124.31691313 278.21041469 121.90478516 280.13037109 C120.38884766 281.36787109 120.38884766 281.36787109 118.84228516 282.63037109 C107.96453301 290.22519804 94.37174587 293.70718184 81.46728516 295.75537109 C80.33395752 295.94039185 80.33395752 295.94039185 79.17773438 296.12915039 C64.23868825 298.3305497 48.95571232 298.2912527 33.88525391 298.29833984 C32.20982336 298.30157541 30.53439306 298.30494091 28.85896301 298.3084259 C25.36568553 298.31435468 21.87243253 298.31627281 18.37915039 298.31567383 C14.88853682 298.3155934 11.39805684 298.32241288 7.9074707 298.33618164 C-11.08158445 298.40985709 -30.0124478 298.21337014 -48.97802734 297.20068359 C-50.1662783 297.13785974 -50.1662783 297.13785974 -51.37853432 297.07376671 C-72.08801168 295.95225889 -90.33012862 293.75842753 -108.09521484 282.13037109 C-109.18833984 281.44974609 -110.28146484 280.76912109 -111.40771484 280.06787109 C-124.6536811 270.51845356 -134.92866223 254.79449928 -139.09521484 239.13037109 C-139.36076172 238.26154297 -139.62630859 237.39271484 -139.89990234 236.49755859 C-142.66312398 226.41837871 -142.7212627 216.2233555 -142.9375 205.83007812 C-143.05416513 203.05131942 -143.05416513 203.05131942 -143.59599304 200.02085876 C-144.14996394 195.70370566 -144.24291979 191.52832612 -144.24047852 187.18286133 C-144.24383713 186.31319229 -144.24719574 185.44352325 -144.25065613 184.54750061 C-144.26013183 181.67797397 -144.26210923 178.80850616 -144.26318359 175.93896484 C-144.26640444 173.91333493 -144.2697691 171.88770525 -144.27326965 169.86207581 C-144.27925676 165.60441553 -144.28111057 161.34677551 -144.28051758 157.08911133 C-144.28043709 152.78275277 -144.28725237 148.47650233 -144.30102539 144.17016602 C-144.53773002 68.99844079 -144.53773002 68.99844079 -136.47021484 50.56787109 C-136.12120117 49.75431152 -135.7721875 48.94075195 -135.41259766 48.10253906 C-132.42960195 41.39547217 -128.80987204 35.77607404 -124.09521484 30.13037109 C-123.45583984 29.29248047 -122.81646484 28.45458984 -122.15771484 27.59130859 C-116.96816144 21.39922783 -109.40981133 15.64408026 -102.09521484 12.13037109 C-101.10521484 12.13037109 -100.11521484 12.13037109 -99.09521484 12.13037109 C-99.09521484 11.47037109 -99.09521484 10.81037109 -99.09521484 10.13037109 C-97.77521484 10.13037109 -96.45521484 10.13037109 -95.09521484 10.13037109 C-95.09521484 9.47037109 -95.09521484 8.81037109 -95.09521484 8.13037109 C-81.84630916 3.42360102 -68.24389264 0.97590154 -54.19287109 0.52099609 C-52.56498154 0.46384933 -52.56498154 0.46384933 -50.90420532 0.4055481 C-33.94315194 -0.11032016 -16.96700173 -0.01934827 0 0 Z " fill="#96B5DA" transform="translate(251.09521484375,106.86962890625)"/>
<path d="M0 0 C5.02652652 0.00570455 10.05300025 0.00229709 15.07952499 -0.00342655 C50.44479197 -0.03793966 50.44479197 -0.03793966 65.05322266 0.53271484 C66.38052902 0.58218765 66.38052902 0.58218765 67.73464966 0.63265991 C92.84191926 1.83665599 116.5790441 10.36081829 133.90478516 29.13037109 C142.53978956 39.96108097 148.01389897 51.53487055 151.15478516 65.00537109 C151.31833496 65.69993408 151.48188477 66.39449707 151.65039062 67.11010742 C155.07473011 83.10802213 154.05177415 99.94925097 154.03759766 116.20068359 C154.03782118 118.93203772 154.03924264 121.66339105 154.04049683 124.39474487 C154.04230648 130.09845471 154.0399435 135.80215152 154.03515625 141.50585938 C154.02971073 148.06902551 154.03148328 154.63216058 154.03698266 161.19532597 C154.04154202 166.86708913 154.04215074 172.53884301 154.03954399 178.21060741 C154.03799735 181.58215654 154.03814452 184.95367958 154.04108047 188.32522964 C154.04363774 192.08598136 154.03972355 195.84667449 154.03417969 199.60742188 C154.03620392 200.70177551 154.03822815 201.79612915 154.04031372 202.92364502 C154.01286754 213.04256212 153.52191977 222.98198041 151.02978516 232.81787109 C150.84907471 233.54772217 150.66836426 234.27757324 150.48217773 235.02954102 C149.96971057 237.06689939 149.44077162 239.09909506 148.90478516 241.13037109 C148.67919922 242.00951172 148.45361328 242.88865234 148.22119141 243.79443359 C145.32475374 253.68909644 139.01431457 263.70194458 131.90478516 271.13037109 C131.24478516 271.13037109 130.58478516 271.13037109 129.90478516 271.13037109 C129.57478516 272.12037109 129.24478516 273.11037109 128.90478516 274.13037109 C126.75956158 276.34831411 124.31691313 278.21041469 121.90478516 280.13037109 C120.38884766 281.36787109 120.38884766 281.36787109 118.84228516 282.63037109 C107.96453301 290.22519804 94.37174587 293.70718184 81.46728516 295.75537109 C80.33395752 295.94039185 80.33395752 295.94039185 79.17773438 296.12915039 C64.23868825 298.3305497 48.95571232 298.2912527 33.88525391 298.29833984 C32.20982336 298.30157541 30.53439306 298.30494091 28.85896301 298.3084259 C25.36568553 298.31435468 21.87243253 298.31627281 18.37915039 298.31567383 C14.88853682 298.3155934 11.39805684 298.32241288 7.9074707 298.33618164 C-11.08158445 298.40985709 -30.0124478 298.21337014 -48.97802734 297.20068359 C-50.1662783 297.13785974 -50.1662783 297.13785974 -51.37853432 297.07376671 C-72.08801168 295.95225889 -90.33012862 293.75842753 -108.09521484 282.13037109 C-109.18833984 281.44974609 -110.28146484 280.76912109 -111.40771484 280.06787109 C-124.6536811 270.51845356 -134.92866223 254.79449928 -139.09521484 239.13037109 C-139.36076172 238.26154297 -139.62630859 237.39271484 -139.89990234 236.49755859 C-142.66312398 226.41837871 -142.7212627 216.2233555 -142.9375 205.83007812 C-143.05416513 203.05131942 -143.05416513 203.05131942 -143.59599304 200.02085876 C-144.14996394 195.70370566 -144.24291979 191.52832612 -144.24047852 187.18286133 C-144.24383713 186.31319229 -144.24719574 185.44352325 -144.25065613 184.54750061 C-144.26013183 181.67797397 -144.26210923 178.80850616 -144.26318359 175.93896484 C-144.26640444 173.91333493 -144.2697691 171.88770525 -144.27326965 169.86207581 C-144.27925676 165.60441553 -144.28111057 161.34677551 -144.28051758 157.08911133 C-144.28043709 152.78275277 -144.28725237 148.47650233 -144.30102539 144.17016602 C-144.53773002 68.99844079 -144.53773002 68.99844079 -136.47021484 50.56787109 C-136.12120117 49.75431152 -135.7721875 48.94075195 -135.41259766 48.10253906 C-132.42960195 41.39547217 -128.80987204 35.77607404 -124.09521484 30.13037109 C-123.45583984 29.29248047 -122.81646484 28.45458984 -122.15771484 27.59130859 C-116.96816144 21.39922783 -109.40981133 15.64408026 -102.09521484 12.13037109 C-101.10521484 12.13037109 -100.11521484 12.13037109 -99.09521484 12.13037109 C-99.09521484 11.47037109 -99.09521484 10.81037109 -99.09521484 10.13037109 C-97.77521484 10.13037109 -96.45521484 10.13037109 -95.09521484 10.13037109 C-95.09521484 9.47037109 -95.09521484 8.81037109 -95.09521484 8.13037109 C-81.84630916 3.42360102 -68.24389264 0.97590154 -54.19287109 0.52099609 C-52.56498154 0.46384933 -52.56498154 0.46384933 -50.90420532 0.4055481 C-33.94315194 -0.11032016 -16.96700173 -0.01934827 0 0 Z M-50.13427734 27.55615234 C-51.7924926 27.61033829 -51.7924926 27.61033829 -53.48420715 27.6656189 C-61.59462551 27.98561087 -69.2602376 28.89755344 -77.09521484 31.13037109 C-78.06845703 31.39591797 -79.04169922 31.66146484 -80.04443359 31.93505859 C-92.75845927 35.94254786 -103.54216068 45.20704032 -109.90771484 56.88037109 C-118.87358472 76.67749318 -117.40939638 101.23409881 -117.36083984 122.50537109 C-117.36219416 124.6555994 -117.36414098 126.8058274 -117.36663818 128.95605469 C-117.3695535 133.41978935 -117.36540963 137.88344289 -117.35595703 142.34716797 C-117.34456484 147.99403344 -117.3511439 153.6407086 -117.36310196 159.28756714 C-117.37041896 163.71493903 -117.36798818 168.14226773 -117.36284637 172.56964111 C-117.36153688 174.64870223 -117.36305956 176.72776762 -117.36780548 178.80682373 C-117.38765708 189.93902937 -117.09000044 200.9768214 -116.18408203 212.07568359 C-116.10402042 213.0610611 -116.02395882 214.0464386 -115.9414711 215.06167603 C-114.80110885 227.82406084 -111.98635455 239.69307547 -104.09521484 250.13037109 C-103.43521484 250.13037109 -102.77521484 250.13037109 -102.09521484 250.13037109 C-101.70269531 251.01595703 -101.70269531 251.01595703 -101.30224609 251.91943359 C-96.88523526 260.01013952 -87.40522582 264.2139218 -79.09521484 267.13037109 C-75.58728951 267.87278915 -72.14194937 268.40986115 -68.57958984 268.80615234 C-66.09521484 269.13037109 -66.09521484 269.13037109 -65.09521484 270.13037109 C-62.39229329 270.37636708 -59.71527972 270.55462613 -57.00585938 270.68457031 C-56.15872438 270.72668074 -55.31158939 270.76879116 -54.43878365 270.81217766 C-43.803777 271.29376847 -33.16856751 271.27480038 -22.52490234 271.26318359 C-20.30591827 271.26385965 -18.08693427 271.26483217 -15.86795044 271.26608276 C-11.25082687 271.26754494 -6.63372284 271.26545291 -2.01660156 271.26074219 C3.85412713 271.25503909 9.72481015 271.2583371 15.59553719 271.26431465 C20.16674128 271.26795478 24.73793481 271.26676604 29.30913925 271.26418686 C31.47213624 271.26352746 33.63513423 271.2643108 35.79813004 271.26666641 C68.50268774 272.19774332 68.50268774 272.19774332 98.90478516 262.13037109 C100.05978516 261.57349609 101.21478516 261.01662109 102.40478516 260.44287109 C111.23713366 255.23136688 116.9781902 247.38269253 120.90478516 238.13037109 C121.27216797 237.47166016 121.63955078 236.81294922 122.01806641 236.13427734 C125.74014248 229.19091361 126.07540979 221.50272854 126.68791199 213.78140259 C126.83063706 212.03674845 126.9863774 210.29310209 127.15615845 208.5508728 C128.10543066 198.04868772 128.06880733 187.56584345 128.07275391 177.02880859 C128.07597808 174.982147 128.07934296 172.93548561 128.08283997 170.88882446 C128.08880137 166.60735543 128.09068323 162.32590648 128.09008789 158.04443359 C128.09000702 153.71008089 128.09689011 149.37583475 128.1105957 145.04150391 C131.35548678 93.88816711 131.35548678 93.88816711 113.90478516 48.13037109 C113.16228516 47.07849609 112.41978516 46.02662109 111.65478516 44.94287109 C98.68025333 31.67346355 80.22883447 28.22239254 62.42822266 27.55615234 C60.83697319 27.49519882 60.83697319 27.49519882 59.21357727 27.43301392 C43.65610093 26.90989861 28.08699207 26.98027058 12.52270508 27 C8.00866855 27.00568378 3.49469112 27.00231172 -1.01934338 26.99656773 C-17.39581873 26.97880065 -33.7656315 27.0018325 -50.13427734 27.55615234 Z " fill="#010202" transform="translate(251.09521484375,106.86962890625)"/>
<path d="M0 0 C0.92683594 0.43054688 1.85367188 0.86109375 2.80859375 1.3046875 C20.34615533 10.62084628 34.0200943 27.11900146 40 46 C45.43857663 64.61305968 44.74967599 85.51478629 35.75 102.9375 C28.03492344 116.01026861 19.61263522 125.63706258 7 134 C6.0821875 134.66257812 5.164375 135.32515625 4.21875 136.0078125 C0.45381449 138.33805171 -3.26375519 139.76672922 -7.4375 141.1875 C-8.16259766 141.44724609 -8.88769531 141.70699219 -9.63476562 141.97460938 C-17.66931153 144.76829245 -25.36794083 145.18174365 -33.8125 145.1875 C-34.74642578 145.19974609 -35.68035156 145.21199219 -36.64257812 145.22460938 C-58.41213309 145.26993114 -75.31275978 135.53291144 -90.5625 120.75 C-104.42628873 106.81607405 -110.32005976 87.83516155 -110.5625 68.625 C-110.44792581 49.19234776 -104.2887573 34.02620444 -92 19 C-91.47792969 18.25621094 -90.95585937 17.51242188 -90.41796875 16.74609375 C-89.95003906 16.16988281 -89.48210937 15.59367187 -89 15 C-88.34 15 -87.68 15 -87 15 C-86.67 14.01 -86.34 13.02 -86 12 C-83.56640625 9.95703125 -83.56640625 9.95703125 -80.5625 7.8125 C-79.57378906 7.09707031 -78.58507812 6.38164062 -77.56640625 5.64453125 C-75 4 -75 4 -73 4 C-73 3.34 -73 2.68 -73 2 C-49.51807696 -8.73360092 -23.71726772 -12.67813295 0 0 Z " fill="#010102" transform="translate(290,187)"/>
<path d="M0 0 C0.86625 0.598125 1.7325 1.19625 2.625 1.8125 C13.30483574 11.64919082 18.66443464 23.85754838 19.3125 38.25 C18.93391771 49.98605109 16.16175298 59.68671199 9 69 C8.51015625 69.70511719 8.0203125 70.41023438 7.515625 71.13671875 C1.64020167 78.84442616 -9.68633144 86.43267657 -19.421875 87.86328125 C-37.50323124 88.82214105 -37.50323124 88.82214105 -46 86 C-46.84304687 85.72800781 -47.68609375 85.45601563 -48.5546875 85.17578125 C-61.34859014 80.41576024 -71.02884235 70.8500952 -76.9921875 58.65234375 C-81.07425251 47.90923466 -82.55646167 33.22308971 -78.3125 22.3125 C-77.57590797 20.85715727 -76.80611429 19.41801623 -76 18 C-75.66097656 17.26136719 -75.32195312 16.52273437 -74.97265625 15.76171875 C-69.2812022 4.03448782 -58.45323861 -4.49122016 -46.3125 -8.8125 C-29.34204267 -13.86500043 -14.08023322 -10.25805414 0 0 Z " fill="#96B5DA" transform="translate(287,217)"/>
<path d="M0 0 C5.45319702 3.08516489 9.11750626 6.98725881 11 13 C11.75830488 18.66266634 11.2196454 23.17053191 8 28 C4.30010174 32.67532598 1.06314242 35.07511387 -5 36 C-10.64742561 36.16049522 -15.05587383 35.16844397 -19.4921875 31.578125 C-23.19443568 27.70323312 -25.18817319 23.29802652 -25.4375 17.9375 C-24.65890823 10.93017405 -22.28312856 6.62273749 -17 2 C-11.84048136 -1.43967909 -5.98602976 -0.96737357 0 0 Z " fill="#020303" transform="translate(343,159)"/>
<path d="M0 0 C0.66 0.33 1.32 0.66 2 1 C-2.62 5.62 -7.24 10.24 -12 15 C-12.66 14.67 -13.32 14.34 -14 14 C-12.60919892 12.41224451 -11.21211596 10.82999061 -9.8125 9.25 C-8.64654297 7.92742187 -8.64654297 7.92742187 -7.45703125 6.578125 C-5.11544754 4.12113732 -2.69841735 2.05137234 0 0 Z " fill="#7F9AB9" transform="translate(158,145)"/>
</svg>
