<?xml version="1.0" encoding="UTF-8"?>
<svg version="1.1" xmlns="http://www.w3.org/2000/svg" width="512" height="512">
<path d="M0 0 C3.70785765 0.01139377 7.41542799 0.00464295 11.12327576 -0.0069046 C40.45973096 -0.08395246 40.45973096 -0.08395246 54.453125 2.26074219 C54.453125 2.92074219 54.453125 3.58074219 54.453125 4.26074219 C55.26136719 4.32132812 56.06960938 4.38191406 56.90234375 4.44433594 C57.97097656 4.528125 59.03960937 4.61191406 60.140625 4.69824219 C61.19636719 4.77945312 62.25210937 4.86066406 63.33984375 4.94433594 C66.10398797 5.225259 68.74258241 5.66231071 71.453125 6.26074219 C71.453125 6.92074219 71.453125 7.58074219 71.453125 8.26074219 C72.690625 8.34324219 73.928125 8.42574219 75.203125 8.51074219 C83.738339 9.45311597 91.64678352 12.84546779 99.453125 16.26074219 C100.77588556 16.6338285 102.10544577 16.99120634 103.453125 17.26074219 C103.453125 17.92074219 103.453125 18.58074219 103.453125 19.26074219 C106.423125 19.92074219 109.393125 20.58074219 112.453125 21.26074219 C112.453125 21.92074219 112.453125 22.58074219 112.453125 23.26074219 C113.54560547 23.43283203 113.54560547 23.43283203 114.66015625 23.60839844 C117.54852166 24.28302364 119.56878786 25.23631222 122.140625 26.69824219 C123.0790625 27.22546875 124.0175 27.75269531 124.984375 28.29589844 C126.1290625 28.94429687 127.27375 29.59269531 128.453125 30.26074219 C130.85158156 31.59591747 133.25253659 32.92653507 135.65356445 34.25708008 C139.25584251 36.25394512 142.85453877 38.25723391 146.453125 40.26074219 C146.453125 40.92074219 146.453125 41.58074219 146.453125 42.26074219 C148.433125 42.92074219 150.413125 43.58074219 152.453125 44.26074219 C152.453125 44.92074219 152.453125 45.58074219 152.453125 46.26074219 C154.103125 46.92074219 155.753125 47.58074219 157.453125 48.26074219 C157.453125 48.92074219 157.453125 49.58074219 157.453125 50.26074219 C158.773125 50.59074219 160.093125 50.92074219 161.453125 51.26074219 C161.453125 51.92074219 161.453125 52.58074219 161.453125 53.26074219 C163.103125 53.92074219 164.753125 54.58074219 166.453125 55.26074219 C166.453125 55.92074219 166.453125 56.58074219 166.453125 57.26074219 C167.21625 57.52886719 167.979375 57.79699219 168.765625 58.07324219 C171.45276006 59.26058094 172.54022078 60.10872495 174.453125 62.26074219 C175.236875 63.04449219 176.020625 63.82824219 176.828125 64.63574219 C178.50524068 66.31285787 180.17292962 67.99948903 181.828125 69.69824219 C183.75310952 71.57739374 185.62036463 73.21089572 187.703125 74.88574219 C191.77881689 78.3234997 194.95843928 82.38609487 198.26953125 86.54589844 C200.08107319 88.79817331 201.9420849 90.94131008 203.890625 93.07324219 C208.06818965 97.77911712 211.60863377 102.94518678 215.21875 108.08886719 C216.51331305 109.92660354 217.84125505 111.74337347 219.25 113.49511719 C220.453125 115.26074219 220.453125 115.26074219 220.453125 118.26074219 C221.113125 118.26074219 221.773125 118.26074219 222.453125 118.26074219 C223.29161304 119.71611786 224.12376434 121.17514592 224.953125 122.63574219 C225.64921875 123.85390625 225.64921875 123.85390625 226.359375 125.09667969 C227.453125 127.26074219 227.453125 127.26074219 227.453125 129.26074219 C228.113125 129.26074219 228.773125 129.26074219 229.453125 129.26074219 C230.70977478 132.1667448 231.453125 134.05678803 231.453125 137.26074219 C232.113125 137.26074219 232.773125 137.26074219 233.453125 137.26074219 C234.70977478 140.1667448 235.453125 142.05678803 235.453125 145.26074219 C236.113125 145.26074219 236.773125 145.26074219 237.453125 145.26074219 C237.85144531 146.26234375 238.24976563 147.26394531 238.66015625 148.29589844 C239.19526536 149.63836515 239.73042428 150.980812 240.265625 152.32324219 C240.52666016 152.98001953 240.78769531 153.63679687 241.05664062 154.31347656 C241.44819336 155.29477539 241.44819336 155.29477539 241.84765625 156.29589844 C242.1101416 156.95477051 242.37262695 157.61364258 242.64306641 158.29248047 C243.43612155 160.21942761 244.29070039 162.10980221 245.15234375 164.00683594 C246.453125 167.26074219 246.453125 167.26074219 246.453125 171.26074219 C247.113125 171.26074219 247.773125 171.26074219 248.453125 171.26074219 C249.59076851 175.52690535 250.453125 178.8256053 250.453125 183.26074219 C251.113125 183.26074219 251.773125 183.26074219 252.453125 183.26074219 C252.76056641 184.86755859 252.76056641 184.86755859 253.07421875 186.50683594 C253.34615209 187.9040107 253.61829852 189.301144 253.890625 190.69824219 C254.02533203 191.40529297 254.16003906 192.11234375 254.29882812 192.84082031 C254.73719398 196.34503483 254.73719398 196.34503483 256.453125 199.26074219 C256.73821399 200.8666067 256.96760693 202.48245395 257.171875 204.10058594 C257.36330078 205.57108398 257.36330078 205.57108398 257.55859375 207.07128906 C257.68878906 208.10318359 257.81898438 209.13507813 257.953125 210.19824219 C258.21026225 212.22860812 258.47052607 214.25858129 258.734375 216.28808594 C258.84845703 217.19292725 258.96253906 218.09776855 259.08007812 219.0300293 C259.34601865 221.29116282 259.34601865 221.29116282 260.453125 223.26074219 C260.55489048 225.27576366 260.59154121 227.29418961 260.59838867 229.31176758 C260.60795845 231.21999046 260.60795845 231.21999046 260.61772156 233.16676331 C260.61925114 234.56397463 260.62036462 235.96118646 260.62109375 237.35839844 C260.62430783 238.79129571 260.62767202 240.22419265 260.63117981 241.65708923 C260.63717614 244.66747802 260.63901944 247.67783809 260.63842773 250.68823242 C260.63832664 254.52567915 260.65192186 258.36293866 260.66919994 262.20034122 C260.68038583 265.16453374 260.68234485 268.12868215 260.68181801 271.0928936 C260.68299041 272.50612464 260.68737018 273.91935711 260.69515038 275.33256721 C260.73327805 282.98047248 260.43468648 289.86484005 258.453125 297.26074219 C257.84299341 301.09193252 257.45963516 304.95424329 257.015625 308.80761719 C256.5034821 311.95160556 255.68734761 314.3518489 254.453125 317.26074219 C254.10162407 318.85681676 253.78894802 320.46193791 253.515625 322.07324219 C252.8939617 325.38877977 252.11679589 328.43043525 250.890625 331.57324219 C249.73565253 334.53599766 248.94092852 337.13879964 248.453125 340.26074219 C247.793125 340.26074219 247.133125 340.26074219 246.453125 340.26074219 C246.37191406 341.21078125 246.29070312 342.16082031 246.20703125 343.13964844 C245.48920542 348.16442922 243.42254348 352.58343597 241.390625 357.19824219 C241.01357422 358.07287109 240.63652344 358.9475 240.24804688 359.84863281 C239.32389532 361.98938895 238.3921499 364.12647866 237.453125 366.26074219 C236.793125 366.26074219 236.133125 366.26074219 235.453125 366.26074219 C235.30875 367.20949219 235.164375 368.15824219 235.015625 369.13574219 C234.453125 372.26074219 234.453125 372.26074219 233.453125 374.26074219 C232.793125 374.26074219 232.133125 374.26074219 231.453125 374.26074219 C231.30875 375.20949219 231.164375 376.15824219 231.015625 377.13574219 C230.453125 380.26074219 230.453125 380.26074219 229.453125 382.26074219 C228.793125 382.26074219 228.133125 382.26074219 227.453125 382.26074219 C227.185 383.14761719 226.916875 384.03449219 226.640625 384.94824219 C225.5280615 388.05170879 224.35116722 390.57184904 222.453125 393.26074219 C221.793125 393.26074219 221.133125 393.26074219 220.453125 393.26074219 C220.22238281 394.11796875 219.99164063 394.97519531 219.75390625 395.85839844 C218.28746785 399.69403763 216.19954154 402.54970707 213.640625 405.69824219 C212.73722804 406.83542713 211.83487378 407.97344123 210.93359375 409.11230469 C210.50353027 409.65274414 210.0734668 410.19318359 209.63037109 410.75 C208.15856393 412.63874798 206.7987618 414.59317603 205.453125 416.57324219 C204.793125 417.46011719 204.133125 418.34699219 203.453125 419.26074219 C202.793125 419.26074219 202.133125 419.26074219 201.453125 419.26074219 C201.19789063 419.82148438 200.94265625 420.38222656 200.6796875 420.95996094 C196.9506875 427.9548049 191.28183112 433.77943713 185.21484375 438.78808594 C183.41838065 440.23245423 183.41838065 440.23245423 181.84765625 441.95214844 C180.453125 443.26074219 180.453125 443.26074219 178.453125 443.26074219 C178.123125 444.25074219 177.793125 445.24074219 177.453125 446.26074219 C176.793125 446.26074219 176.133125 446.26074219 175.453125 446.26074219 C175.123125 447.25074219 174.793125 448.24074219 174.453125 449.26074219 C172.83258688 450.64977486 171.15607287 451.97407047 169.453125 453.26074219 C168.38804692 454.17441211 167.32555102 455.09110049 166.265625 456.01074219 C163.453125 458.26074219 163.453125 458.26074219 161.453125 458.26074219 C161.453125 458.92074219 161.453125 459.58074219 161.453125 460.26074219 C160.133125 460.59074219 158.813125 460.92074219 157.453125 461.26074219 C157.453125 461.92074219 157.453125 462.58074219 157.453125 463.26074219 C155.473125 463.92074219 153.493125 464.58074219 151.453125 465.26074219 C151.453125 465.92074219 151.453125 466.58074219 151.453125 467.26074219 C149.803125 467.92074219 148.153125 468.58074219 146.453125 469.26074219 C146.453125 469.92074219 146.453125 470.58074219 146.453125 471.26074219 C144.143125 471.92074219 141.833125 472.58074219 139.453125 473.26074219 C139.453125 473.92074219 139.453125 474.58074219 139.453125 475.26074219 C137.22880282 476.5820919 134.99928881 477.89285424 132.765625 479.19824219 C132.13978516 479.57142578 131.51394531 479.94460938 130.86914062 480.32910156 C127.40868051 482.3401543 124.49801824 483.77349883 120.453125 484.26074219 C120.453125 484.92074219 120.453125 485.58074219 120.453125 486.26074219 C117.813125 486.92074219 115.173125 487.58074219 112.453125 488.26074219 C112.453125 488.92074219 112.453125 489.58074219 112.453125 490.26074219 C109.483125 490.92074219 106.513125 491.58074219 103.453125 492.26074219 C103.453125 492.92074219 103.453125 493.58074219 103.453125 494.26074219 C99.823125 494.92074219 96.193125 495.58074219 92.453125 496.26074219 C92.453125 496.92074219 92.453125 497.58074219 92.453125 498.26074219 C91.72867187 498.45410156 91.00421875 498.64746094 90.2578125 498.84667969 C85.26908427 500.19031049 80.34514756 501.5953728 75.453125 503.26074219 C73.76785797 503.78875605 72.08012638 504.30893809 70.390625 504.82324219 C69.57464844 505.07203125 68.75867188 505.32082031 67.91796875 505.57714844 C62.97885442 506.94695035 58.59227655 507.36150986 53.453125 507.26074219 C53.453125 507.92074219 53.453125 508.58074219 53.453125 509.26074219 C38.12162406 511.54756848 23.09976924 512.74575797 7.59863281 512.65185547 C4.4533354 512.63574327 1.30932218 512.65184514 -1.8359375 512.67089844 C-16.26262586 512.68349743 -30.28289466 511.38833852 -44.546875 509.26074219 C-44.546875 508.60074219 -44.546875 507.94074219 -44.546875 507.26074219 C-45.97 507.32261719 -45.97 507.32261719 -47.421875 507.38574219 C-52.97650898 507.38574219 -58.66882235 506.41886269 -63.828125 504.34277344 C-68.15672849 502.620039 -72.65002018 501.45944182 -77.1328125 500.20410156 C-81.79102311 498.86902513 -86.11865715 497.22760432 -90.546875 495.26074219 C-91.86963556 494.88765588 -93.19919577 494.53027803 -94.546875 494.26074219 C-94.546875 493.60074219 -94.546875 492.94074219 -94.546875 492.26074219 C-97.516875 491.60074219 -100.486875 490.94074219 -103.546875 490.26074219 C-103.546875 489.60074219 -103.546875 488.94074219 -103.546875 488.26074219 C-106.186875 487.60074219 -108.826875 486.94074219 -111.546875 486.26074219 C-111.546875 485.60074219 -111.546875 484.94074219 -111.546875 484.26074219 C-112.22105469 484.17953125 -112.89523438 484.09832031 -113.58984375 484.01464844 C-117.44156641 483.03263724 -120.46495336 481.22231029 -123.859375 479.19824219 C-124.50455078 478.82119141 -125.14972656 478.44414062 -125.81445312 478.05566406 C-127.39565652 477.13036726 -128.9717896 476.19641538 -130.546875 475.26074219 C-130.546875 474.60074219 -130.546875 473.94074219 -130.546875 473.26074219 C-131.145 473.11636719 -131.743125 472.97199219 -132.359375 472.82324219 C-134.10837904 472.37349829 -135.83364523 471.83181878 -137.546875 471.26074219 C-137.546875 470.60074219 -137.546875 469.94074219 -137.546875 469.26074219 C-138.51625 468.97199219 -139.485625 468.68324219 -140.484375 468.38574219 C-143.546875 467.26074219 -143.546875 467.26074219 -144.546875 465.26074219 C-146.56357327 464.12723685 -146.56357327 464.12723685 -148.546875 463.26074219 C-148.546875 462.60074219 -148.546875 461.94074219 -148.546875 461.26074219 C-149.866875 460.93074219 -151.186875 460.60074219 -152.546875 460.26074219 C-152.546875 459.60074219 -152.546875 458.94074219 -152.546875 458.26074219 C-154.196875 457.60074219 -155.846875 456.94074219 -157.546875 456.26074219 C-157.546875 455.60074219 -157.546875 454.94074219 -157.546875 454.26074219 C-158.31 453.99261719 -159.073125 453.72449219 -159.859375 453.44824219 C-162.54651006 452.26090344 -163.63397078 451.41275943 -165.546875 449.26074219 C-166.330625 448.47699219 -167.114375 447.69324219 -167.921875 446.88574219 C-169.59899068 445.2086265 -171.26667962 443.52199534 -172.921875 441.82324219 C-174.89916122 439.89303421 -176.86376063 438.14282266 -178.984375 436.38574219 C-182.60152757 433.31310721 -185.55875071 429.93627535 -188.546875 426.26074219 C-189.61808594 424.96910156 -189.61808594 424.96910156 -190.7109375 423.65136719 C-196.00896794 417.23702932 -201.2736001 410.81526419 -205.796875 403.82324219 C-207.29447603 401.18427187 -207.29447603 401.18427187 -209.546875 400.26074219 C-210.58156375 398.54298593 -211.55168093 396.78594616 -212.484375 395.01074219 C-214.00671802 392.12958148 -215.52366936 389.29825708 -217.23828125 386.52636719 C-218.546875 384.26074219 -218.546875 384.26074219 -218.546875 382.26074219 C-219.206875 382.26074219 -219.866875 382.26074219 -220.546875 382.26074219 C-221.80352478 379.35473958 -222.546875 377.46469634 -222.546875 374.26074219 C-223.206875 374.26074219 -223.866875 374.26074219 -224.546875 374.26074219 C-225.55384068 372.1599001 -226.5522339 370.0549473 -227.546875 367.94824219 C-228.10375 366.77648437 -228.660625 365.60472656 -229.234375 364.39746094 C-230.546875 361.26074219 -230.546875 361.26074219 -230.546875 358.26074219 C-231.206875 358.26074219 -231.866875 358.26074219 -232.546875 358.26074219 C-233.38811816 356.01342117 -234.22002332 353.76335433 -235.046875 351.51074219 C-235.28535156 350.87652344 -235.52382812 350.24230469 -235.76953125 349.58886719 C-236.99489258 346.22787612 -237.546875 343.89202632 -237.546875 340.26074219 C-238.206875 340.26074219 -238.866875 340.26074219 -239.546875 340.26074219 C-240.68451851 335.99457902 -241.546875 332.69587908 -241.546875 328.26074219 C-242.206875 328.26074219 -242.866875 328.26074219 -243.546875 328.26074219 C-243.88464184 326.51159249 -244.21691171 324.76138074 -244.546875 323.01074219 C-244.7325 322.03621094 -244.918125 321.06167969 -245.109375 320.05761719 C-245.546875 317.26074219 -245.546875 317.26074219 -245.546875 313.26074219 C-246.206875 313.26074219 -246.866875 313.26074219 -247.546875 313.26074219 C-247.63251709 312.60477051 -247.71815918 311.94879883 -247.80639648 311.27294922 C-248.19534001 308.31004519 -248.58978773 305.34789966 -248.984375 302.38574219 C-249.18643555 300.83693359 -249.18643555 300.83693359 -249.39257812 299.25683594 C-249.52470703 298.27070313 -249.65683594 297.28457031 -249.79296875 296.26855469 C-249.97363892 294.90174561 -249.97363892 294.90174561 -250.15795898 293.50732422 C-250.44050451 291.23340795 -250.44050451 291.23340795 -251.546875 289.26074219 C-251.64881042 287.18447257 -251.68529991 285.1048822 -251.69213867 283.02612305 C-251.69851852 281.71393295 -251.70489838 280.40174286 -251.71147156 279.04978943 C-251.71300111 277.60838864 -251.7141146 276.16698736 -251.71484375 274.72558594 C-251.71805769 273.24784818 -251.72142186 271.77011074 -251.72492981 270.29237366 C-251.73092632 267.18782821 -251.73276941 264.0833106 -251.73217773 260.97875977 C-251.73207662 257.0202471 -251.74567382 253.06191586 -251.76294994 249.10344601 C-251.77413257 246.04660745 -251.77609495 242.98981169 -251.77556801 239.93295479 C-251.77674082 238.47506656 -251.78112296 237.01717696 -251.78890038 235.55930901 C-251.82611327 227.85649028 -251.56681007 220.73531973 -249.546875 213.26074219 C-249.09451947 210.57897793 -248.76239774 207.89810109 -248.421875 205.19824219 C-248.33550781 204.52341797 -248.24914062 203.84859375 -248.16015625 203.15332031 C-247.95202132 201.52293 -247.74888954 199.89190216 -247.546875 198.26074219 C-246.886875 198.26074219 -246.226875 198.26074219 -245.546875 198.26074219 C-245.48628906 197.596875 -245.42570313 196.93300781 -245.36328125 196.24902344 C-244.53105778 187.47866837 -244.53105778 187.47866837 -243.546875 183.26074219 C-242.886875 183.26074219 -242.226875 183.26074219 -241.546875 183.26074219 C-241.4025 182.04386719 -241.258125 180.82699219 -241.109375 179.57324219 C-240.01385098 170.96120616 -240.01385098 170.96120616 -237.546875 167.26074219 C-236.83874686 164.9396555 -236.16663348 162.60697072 -235.546875 160.26074219 C-234.886875 160.26074219 -234.226875 160.26074219 -233.546875 160.26074219 C-233.216875 157.95074219 -232.886875 155.64074219 -232.546875 153.26074219 C-231.886875 153.26074219 -231.226875 153.26074219 -230.546875 153.26074219 C-230.42957031 152.5453125 -230.31226563 151.82988281 -230.19140625 151.09277344 C-229.51835799 148.13544019 -228.51733624 145.6929054 -227.234375 142.94824219 C-226.56921875 141.52125 -226.56921875 141.52125 -225.890625 140.06542969 C-224.15361826 136.43993306 -222.37171789 132.84284119 -220.546875 129.26074219 C-219.886875 129.26074219 -219.226875 129.26074219 -218.546875 129.26074219 C-218.340625 128.45636719 -218.134375 127.65199219 -217.921875 126.82324219 C-216.38992086 122.85408828 -214.32987276 119.77016933 -211.88671875 116.31152344 C-210.38771675 114.20684376 -210.38771675 114.20684376 -209.546875 111.26074219 C-207.88020833 109.59407552 -206.21354167 107.92740885 -204.546875 106.26074219 C-202.67183221 103.63568228 -200.94510031 101.13683787 -199.609375 98.19824219 C-198.07336098 95.39727545 -195.82377322 93.48210631 -193.546875 91.26074219 C-192.99 90.49761719 -192.433125 89.73449219 -191.859375 88.94824219 C-191.42625 88.39136719 -190.993125 87.83449219 -190.546875 87.26074219 C-189.886875 87.26074219 -189.226875 87.26074219 -188.546875 87.26074219 C-188.32 86.53886719 -188.093125 85.81699219 -187.859375 85.07324219 C-186.28352372 81.69641801 -184.33810884 79.70307179 -181.546875 77.26074219 C-180.886875 77.26074219 -180.226875 77.26074219 -179.546875 77.26074219 C-178.556875 75.28074219 -178.556875 75.28074219 -177.546875 73.26074219 C-176.886875 73.26074219 -176.226875 73.26074219 -175.546875 73.26074219 C-175.32 72.68324219 -175.093125 72.10574219 -174.859375 71.51074219 C-173.20285507 68.67099374 -171.15218794 67.24574252 -168.546875 65.26074219 C-167.825 64.51824219 -167.103125 63.77574219 -166.359375 63.01074219 C-164.546875 61.26074219 -164.546875 61.26074219 -162.546875 61.26074219 C-162.546875 60.60074219 -162.546875 59.94074219 -162.546875 59.26074219 C-160.896875 58.60074219 -159.246875 57.94074219 -157.546875 57.26074219 C-157.546875 56.60074219 -157.546875 55.94074219 -157.546875 55.26074219 C-155.896875 54.60074219 -154.246875 53.94074219 -152.546875 53.26074219 C-152.546875 52.60074219 -152.546875 51.94074219 -152.546875 51.26074219 C-151.5878125 51.10605469 -151.5878125 51.10605469 -150.609375 50.94824219 C-149.92875 50.72136719 -149.248125 50.49449219 -148.546875 50.26074219 C-148.216875 49.27074219 -147.886875 48.28074219 -147.546875 47.26074219 C-145.484375 46.57324219 -145.484375 46.57324219 -143.546875 46.26074219 C-143.546875 45.60074219 -143.546875 44.94074219 -143.546875 44.26074219 C-141.566875 43.60074219 -139.586875 42.94074219 -137.546875 42.26074219 C-137.546875 41.60074219 -137.546875 40.94074219 -137.546875 40.26074219 C-135.566875 39.60074219 -133.586875 38.94074219 -131.546875 38.26074219 C-131.546875 37.60074219 -131.546875 36.94074219 -131.546875 36.26074219 C-129.236875 35.60074219 -126.926875 34.94074219 -124.546875 34.26074219 C-124.546875 33.60074219 -124.546875 32.94074219 -124.546875 32.26074219 C-123.68449219 31.83148437 -122.82210937 31.40222656 -121.93359375 30.95996094 C-119.76316665 29.87099232 -117.59848789 28.77044394 -115.44140625 27.65527344 C-114.42433594 27.13320313 -113.40726563 26.61113281 -112.359375 26.07324219 C-111.33457031 25.5434375 -110.30976563 25.01363281 -109.25390625 24.46777344 C-106.546875 23.26074219 -106.546875 23.26074219 -103.546875 23.26074219 C-103.546875 22.60074219 -103.546875 21.94074219 -103.546875 21.26074219 C-100.576875 20.60074219 -97.606875 19.94074219 -94.546875 19.26074219 C-94.546875 18.60074219 -94.546875 17.94074219 -94.546875 17.26074219 C-89.596875 16.27074219 -89.596875 16.27074219 -84.546875 15.26074219 C-84.546875 14.60074219 -84.546875 13.94074219 -84.546875 13.26074219 C-83.82242188 13.06738281 -83.09796875 12.87402344 -82.3515625 12.67480469 C-76.21522336 11.02699985 -76.21522336 11.02699985 -70.171875 9.07324219 C-67.48212394 8.24070019 -65.34421975 8.0961925 -62.546875 8.26074219 C-62.546875 7.60074219 -62.546875 6.94074219 -62.546875 6.26074219 C-56.78605659 4.96252959 -51.45947845 4.00367247 -45.546875 4.26074219 C-45.546875 3.60074219 -45.546875 2.94074219 -45.546875 2.26074219 C-30.44833097 -0.26912836 -15.25562905 -0.04751142 0 0 Z " fill="#97B6DB" transform="translate(251.546875,-0.2607421875)"/>
<path d="M0 0 C18.81 0 37.62 0 57 0 C57.495 12.375 57.495 12.375 58 25 C59.98 22.36 61.96 19.72 64 17 C77.0864863 4.08485886 95.10936853 -0.58078752 113.02734375 -0.546875 C114.13311768 -0.53430664 114.13311768 -0.53430664 115.26123047 -0.52148438 C117.49947323 -0.50000506 119.73450861 -0.52143594 121.97265625 -0.546875 C140.90857543 -0.58297409 159.26956554 5.15894376 173.5625 18 C193.29927197 38.79245977 192.46344451 69.53866747 192.30418181 96.1869123 C192.28515448 99.91974163 192.28364442 103.65258192 192.28010559 107.38545227 C192.27086033 114.42204086 192.24635093 121.45848605 192.21605712 128.4950121 C192.17593291 138.02615473 192.15999732 147.55733784 192.14255047 157.08854389 C192.11452231 172.05913623 192.05470368 187.02942626 192 202 C171.87 202 151.74 202 131 202 C130.96132813 189.60953125 130.96132813 189.60953125 130.921875 176.96875 C130.89347538 171.03977094 130.86260015 165.11084485 130.8281765 159.18190193 C130.78401533 151.5195424 130.74551632 143.85729861 130.72900391 136.19482422 C130.71449298 129.47081609 130.67919755 122.74719992 130.63169098 116.02333069 C130.61694932 113.46878553 130.60896317 110.91419143 130.60811615 108.35960388 C131.05778725 82.11541165 131.05778725 82.11541165 120 59 C111.39610007 51.36982529 101.99697196 50.38174532 90.91796875 50.68359375 C85.63165878 51.11050413 81.59713192 52.41571248 77 55 C76.35675781 55.33902344 75.71351563 55.67804688 75.05078125 56.02734375 C67.50312124 60.62797816 63.9539812 69.00466987 61.54296875 77.1875 C59.99736235 85.19351878 59.84094276 93.28697453 59.79467773 101.41650391 C59.78477814 102.51036407 59.77487854 103.60422424 59.76467896 104.73123169 C59.73332869 108.31298732 59.70841221 111.89475617 59.68359375 115.4765625 C59.66300131 117.97334113 59.64200427 120.47011645 59.62062073 122.96688843 C59.56563648 129.51309518 59.51612365 136.05933216 59.46777344 142.60559082 C59.40909866 150.4735733 59.3424164 158.34149426 59.27747345 166.20942688 C59.17976181 178.13958424 59.09070211 190.06977802 59 202 C39.53 202 20.06 202 0 202 C0 135.34 0 68.68 0 0 Z " fill="#000000" transform="translate(222,192)"/>
<path d="M0 0 C23.43 0 46.86 0 71 0 C71 66.66 71 133.32 71 202 C47.57 202 24.14 202 0 202 C0 135.34 0 68.68 0 0 Z " fill="#000000" transform="translate(111,192)"/>
<path d="M0 0 C5.8960352 4.03621201 10.55862964 8.21727788 14.22265625 14.3671875 C14.63386719 15.01945312 15.04507813 15.67171875 15.46875 16.34375 C19.67602545 24.11774685 19.55281333 33.3172991 17.33984375 41.71875 C13.23177991 52.46500971 6.15441348 59.6875118 -3.77734375 65.3671875 C-11.90173754 68.70141204 -21.8894166 68.82233958 -30.15234375 65.8046875 C-40.36927648 60.94190194 -47.70117683 53.45574606 -52.21484375 43.0546875 C-53.88514765 32.10491751 -53.6719098 20.46121042 -47.08984375 11.1171875 C-35.51013703 -2.80127772 -16.9091033 -9.94093555 0 0 Z " fill="#010202" transform="translate(163.77734375,94.6328125)"/>
</svg>
